/* XPM */
static char *_414dcddc8a0461af0fd3f00660f6ff8KxbPAiNhEMLDABxh[] = {
/* columns rows colors chars-per-pixel */
"64 64 255 2 ",
"   c black",
".  c #010100",
"X  c #010200",
"o  c #020301",
"O  c #020401",
"+  c #030501",
"@  c #030601",
"#  c #040702",
"$  c #050802",
"%  c #050902",
"&  c #060A02",
"*  c #060B03",
"=  c #070C03",
"-  c #070D03",
";  c #080E03",
":  c #080F04",
">  c #091004",
",  c #0A1104",
"<  c #0A1204",
"1  c #0B1304",
"2  c #0C1505",
"3  c #0C1605",
"4  c #0D1705",
"5  c #0E1806",
"6  c #0E1906",
"7  c #0F1A06",
"8  c #0F1B06",
"9  c #101C07",
"0  c #101D07",
"q  c #111E07",
"w  c #121F07",
"e  c #122008",
"r  c #132108",
"t  c #132208",
"y  c #142308",
"u  c #142408",
"i  c #152509",
"p  c #152609",
"a  c #162709",
"s  c #172809",
"d  c #17290A",
"f  c #182A0A",
"g  c #182B0A",
"h  c #192C0A",
"j  c #192D0B",
"k  c #1A2E0B",
"l  c #1B2F0B",
"z  c #1B300B",
"x  c #1C310C",
"c  c #1C320C",
"v  c #1D330C",
"b  c #1D340C",
"n  c #1E350C",
"m  c #1E360D",
"M  c #1F370D",
"N  c #20380D",
"B  c #20390D",
"V  c #213A0E",
"C  c #213B0E",
"Z  c #223C0E",
"A  c #223D0E",
"S  c #233E0F",
"D  c #25410F",
"F  c #254210",
"G  c #264310",
"H  c #264410",
"J  c #274510",
"K  c #284610",
"L  c #284711",
"P  c #294811",
"I  c #294911",
"U  c #2A4A11",
"Y  c #2A4B12",
"T  c #2B4C12",
"R  c #2B4D12",
"E  c #2C4E12",
"W  c #2D4F13",
"Q  c #2D5013",
"!  c #2E5113",
"~  c #2E5213",
"^  c #2F5314",
"/  c #305514",
"(  c #315614",
")  c #315714",
"_  c #315416",
"`  c #325815",
"'  c #325915",
"]  c #335A15",
"[  c #335B15",
"{  c #345C16",
"}  c #355D16",
"|  c #355E16",
" . c #365F16",
".. c #37571E",
"X. c #366017",
"o. c #376117",
"O. c #376217",
"+. c #386317",
"@. c #396219",
"#. c #386418",
"$. c #3A6618",
"%. c #3A6718",
"&. c #3B6818",
"*. c #3B6919",
"=. c #3C6A19",
"-. c #3C681A",
";. c #3D6C19",
":. c #3E6D1A",
">. c #3E6E1A",
",. c #3F6F1A",
"<. c #3E6C1C",
"1. c #3F701A",
"2. c #304321",
"3. c #354F22",
"4. c #3A5626",
"5. c #3D5D26",
"6. c #406C1D",
"7. c #416E1E",
"8. c #416F1E",
"9. c #40721B",
"0. c #42741B",
"q. c #43751C",
"w. c #43761C",
"e. c #43771C",
"r. c #44751F",
"t. c #457A1D",
"y. c #45791E",
"u. c #467C1D",
"i. c #477E1E",
"p. c #426527",
"a. c #426D21",
"s. c #477425",
"d. c #4B7E25",
"f. c #49732A",
"g. c #497528",
"h. c #4A742A",
"j. c #4A752B",
"k. c #4F7D2A",
"l. c #4E792D",
"z. c #496632",
"x. c #547D34",
"c. c #48801E",
"v. c #49821F",
"b. c #4B851F",
"n. c #4C8521",
"m. c #4D8622",
"M. c #4D8820",
"N. c #4E8B21",
"B. c #518D22",
"V. c #529122",
"C. c #559724",
"Z. c #569826",
"A. c #599D25",
"S. c #5A9F25",
"D. c #598637",
"F. c #568A30",
"G. c #588D31",
"H. c #598339",
"J. c #669C3D",
"K. c #6CA73F",
"L. c #678D4A",
"P. c #698C4F",
"I. c #6B944C",
"U. c #688055",
"Y. c #6A8258",
"T. c #6D9251",
"R. c #6E9551",
"E. c #6F9255",
"W. c #729C53",
"Q. c #739856",
"!. c #7FA066",
"~. c #84AB67",
"^. c #85A66B",
"/. c #85AB68",
"(. c #87B068",
"). c #8BB26E",
"_. c #92AF7C",
"`. c #92BD72",
"'. c #94BF72",
"]. c #97B77F",
"[. c #9FB78D",
"{. c #9FB88D",
"}. c #A0B88D",
"|. c #A1BB8E",
" X c #A2BC8E",
".X c #A8BF98",
"XX c #A9BF98",
"oX c #9DC081",
"OX c #A4C08F",
"+X c #A4C18F",
"@X c #A6C490",
"#X c #A9C991",
"$X c #ACCF91",
"%X c #ACCE92",
"&X c #A9C098",
"*X c #ABC09B",
"=X c #ACC19C",
"-X c #ACC29C",
";X c #ADC29C",
":X c #AEC59D",
">X c #AFC79D",
",X c #B2CC9E",
"<X c #B3CE9F",
"1X c #B4CF9F",
"2X c #AED392",
"3X c #AFD393",
"4X c #B1C7A0",
"5X c #B5CBA5",
"6X c #B7CFA5",
"7X c #B6D1A2",
"8X c #B7D4A0",
"9X c #B8D7A1",
"0X c #BFD8AC",
"qX c #C0DAAC",
"wX c #C5CDBE",
"eX c #C1D2B4",
"rX c #C3D6B5",
"tX c #C4D6B5",
"yX c #C7D8B9",
"uX c #C9DEBA",
"iX c #CCE6B8",
"pX c #D2E8C1",
"aX c #D7E8C9",
"sX c #D7E9CA",
"dX c #DAE5D2",
"fX c #DBE5D3",
"gX c #DCE6D5",
"hX c #DDE6D5",
"jX c #DCE8D3",
"kX c #DFEFD3",
"lX c #DDE8D4",
"zX c #E3EBDD",
"xX c #E3ECDD",
"cX c #E4EDDD",
"vX c #E4EEDC",
"bX c #E5EFDD",
"nX c #E5EEDE",
"mX c #E3F1D9",
"MX c #E7F3DD",
"NX c #EAEFE7",
"BX c #EAF4E1",
"VX c #EBF0E7",
"CX c #EBF1E7",
"ZX c #EBF5E4",
"AX c #EEF6E7",
"SX c #F2F5EF",
"DX c #F2F6EF",
"FX c #F3F7F1",
"GX c #F4F7F2",
"HX c #F6F8F3",
"JX c #F6F9F4",
"KX c #FBFCFA",
"LX c #FBFDFA",
"PX c #FDFDFC",
"IX c white",
/* pixels */
"                                                                                                                                ",
"                                                                                                                                ",
"                                                                                                                                ",
"                                                                                                                                ",
"                                                                                                                                ",
"                                                                                                                                ",
"                                                                                                                                ",
"                                                                                                                                ",
"                                                                                                                                ",
"                                                                                                                                ",
"                                                                                                                                ",
"                                                              O + +                                                             ",
"                                                          O + % % + +                                                           ",
"                                                      O O % > 3 3 > %                                                           ",
"                                                      + % 3 t h h y 3 = +   o                                                   ",
"                                                  O + ; 5 s Z U.Y.Z s 3 : +   o                                                 ",
"                                                  % > 9 j G | {.-X` G h 9 : + o o                                               ",
"                                              O % > y m W #.i.#X1Xi.+.U c y 1 + o                                               ",
"                                              % > y Z ( s.(.0XZXAX0X~.7._ C y 1 + + o                                           ",
"                                            + > y Z ] I.vXnX2XiXpX$XvXzXL.( C y 1 +                                             ",
"                                          + % 5 x ^ W.JXoXZ.S.3X9XV.m.].HXE./ c 9 % +                                           ",
"                                          + ; y G j.FX).v.i.b.#X<Xt.,.,.^.SXf.K s 1 +                                           ",
"                                          + : s U XXrXi.,.#.1.+X>X&.( ( $.eXXX( v 9 ;                                           ",
"                                          + > f W NXW.,.( ( O.}.-X` J D / P.NX| C q : + o                                       ",
"                                          % 1 h 5.PXt.O.W U ( {.*X~ C c S _ IXp.C q ; o                                         ",
"                                          + 1 h z.HXe.| U D ( [.XX~ c i f C wX4.l 9 % o                                         ",
"                                          % 1 h ..IXd.#.W U ` }.-XW j q 5 u f f q : + o                                         ",
"                                          + > f W gX/.9.O.` #.|.-XQ c 9 < < 5 1 > % +                                           ",
"                                        O + : s T _.jXm.e.,.w.+X:X` m q < % % % + +                                             ",
"                                          + ; y G 7.lX7XB.M.M.#X<X&.U h 5 ; % + +                                               ",
"                                          + % 5 c ( D.nXuXK.S.3X7Xc.O.D h 9 < % o                                               ",
"                                            + > e C ` k.6XLXsXMXmX`.F.@.T m q < % +                                             ",
"                                              # > e M ~ &.G.'.kXMXsXPX5Xg._ M q ; O                                             ",
"                                              o % > q h D O.c.3X9XZ.J.tXzXx.~ M 9 - O                                           ",
"                                                O % - 5 z U &.+X<Xv.w.w.4XfX=.U f > %                                           ",
"                                            o o % % - < t M ` |.:X=.| | <.fX_.` m q % +                                         ",
"                                        o o o % : 3 3 3 q M ~ {.-X] P P ` ^.dX#.G y ;                                           ",
"                                        o o # : q f h i u M T {.*X( Z N U a.IXs.U i : + o                                       ",
"                                        o o = 9 P wXU C M M ~ {.*X~ C v D +.FXH.T f , +                                         ",
"                                        o # > w 3.IX@.~ D D ( {.-X~ C C U -.PXl.K s < + o                                       ",
"                                          + > f K NXR.#.( ~ O.|.-X] K K ( T.CX#.D u ; O                                         ",
"                                        + # > i U XXrXi.,.#.6.|.>X#.( ( -.eX*X] M 8 % O                                         ",
"                                          + : y D f.FX).v.v.b.#X<Xu.,.6.^.SXg.U s 3 %                                           ",
"                                          o % 3 c ( Q.JXoXZ.S.3X9XV.b.].GXE._ c 5 - O                                           ",
"                                            + > y Z ] I.vXMX3XiXiX3XnXzXL.( C y > + O                                           ",
"                                              % > i Z ` e./.0XAXAXqX/.9.Q C i > % O                                             ",
"                                              + % 1 y m U #.i.#X5Xi.+.U m e > % O                                               ",
"                                                  + : 9 j K | }.-X] D h 9 ; %                                                   ",
"                                                    % ; 3 f Z U.Y.C f 3 ; + O                                                   ",
"                                                  o   + ; 3 y f f y 3 - + O                                                     ",
"                                                        + % < 3 3 > % +                                                         ",
"                                                            + % % + +                                                           ",
"                                                            + o +                                                               ",
"                                                                                                                                ",
"                                                                                                                                ",
"                                                                                                                                ",
"                                                                                                                                ",
"                                                                                                                                ",
"                                                                                                                                ",
"                                                                                                                                ",
"                                                                                                                                ",
"                                                                                                                                ",
"                                                                                                                                ",
"                                                                                                                                "
};
