/* XPM */
static char *_a673c2337d6408ba63ea1ecca9b2ffc5Zd25TMJbn3Ak0yQ[] = {
/* columns rows colors chars-per-pixel */
"64 64 158 2 ",
"   c #000000",
".  c #0C0000",
"X  c #140000",
"o  c #1C0000",
"O  c #230000",
"+  c #2B0000",
"@  c #340000",
"#  c #3C0000",
"$  c #3D1515",
"%  c #430000",
"&  c #4C0000",
"*  c #4B0909",
"=  c #530000",
"-  c #5B0000",
";  c #500C0C",
":  c #590A0A",
">  c #4D1212",
",  c #5D1212",
"<  c #561A1A",
"1  c #5F1B1B",
"2  c #630000",
"3  c #6C0000",
"4  c #620B0B",
"5  c #6B0A0A",
"6  c #720000",
"7  c #7A0202",
"8  c #740B0B",
"9  c #621414",
"0  c #6C1212",
"q  c #6E1E1E",
"w  c #761515",
"e  c #781616",
"r  c #652020",
"t  c #692B2B",
"y  c #762222",
"u  c #782121",
"i  c #732C2C",
"p  c #7E2A2A",
"a  c #633434",
"s  c #763838",
"d  c #7F3F3F",
"f  c #644646",
"g  c #7B4040",
"h  c #7E4D4D",
"j  c #840202",
"k  c #8C0101",
"l  c #850909",
"z  c #8A0F0F",
"x  c #930000",
"c  c #990000",
"v  c #900F0F",
"b  c #851C1C",
"n  c #8B1B1B",
"m  c #802020",
"M  c #8C2020",
"N  c #862929",
"B  c #9A2121",
"V  c #8D3030",
"C  c #833A3A",
"Z  c #883939",
"A  c #9D3131",
"S  c #9E3838",
"D  c #B22D2D",
"F  c #A83D3D",
"G  c #844040",
"H  c #8F4747",
"J  c #894848",
"K  c #944444",
"L  c #8E5959",
"P  c #995454",
"I  c #995E5E",
"U  c #AB4040",
"Y  c #AF4B4B",
"T  c #BB4A4A",
"R  c #A65555",
"E  c #AF5252",
"W  c #A15A5A",
"Q  c #976262",
"!  c #9F6262",
"~  c #996C6C",
"^  c #9B7272",
"/  c #A16767",
"(  c #AC6363",
")  c #A66969",
"_  c #AA6969",
"`  c #B46262",
"'  c #B66C6C",
"]  c #A77E7E",
"[  c #AA7C7C",
"{  c #B47676",
"}  c #BB7272",
"|  c #B57C7C",
" . c #BD7B7B",
".. c #C05454",
"X. c #CA5F5F",
"o. c #C26767",
"O. c #C07B7B",
"+. c #AD8989",
"@. c #B58383",
"#. c #BC8585",
"$. c #BA8B8B",
"%. c #B29595",
"&. c #BD9494",
"*. c #B59999",
"=. c #BD9D9D",
"-. c #BFA2A2",
";. c #C38282",
":. c #CA8383",
">. c #C48C8C",
",. c #CB8D8D",
"<. c #C19595",
"1. c #CE9393",
"2. c #C29B9B",
"3. c #CB9D9D",
"4. c #D29898",
"5. c #C5A2A2",
"6. c #CCA4A4",
"7. c #CCACAC",
"8. c #D3A4A4",
"9. c #D3ABAB",
"0. c #DBAFAF",
"q. c #CDB0B0",
"w. c #D6B6B6",
"e. c #D9B5B5",
"r. c #D4BBBB",
"t. c #DBBCBC",
"y. c #E1A5A5",
"u. c #E4B7B7",
"i. c #E1BCBC",
"p. c #D6C1C1",
"a. c #DAC3C3",
"s. c #DCCBCB",
"d. c #E1C4C4",
"f. c #E2CACA",
"g. c #EDCACA",
"h. c #E5D2D2",
"j. c #ECD5D5",
"k. c #E5DDDD",
"l. c #EBDBDB",
"z. c #F2DEDE",
"x. c #E9E0E0",
"c. c #EEE4E4",
"v. c #EDE3E3",
"b. c #F4E1E1",
"n. c #F0E5E5",
"m. c #F3E5E5",
"M. c #F2E6E6",
"N. c #F4E7E7",
"B. c #F0E9E9",
"V. c #F3E9E9",
"C. c #F3EAEA",
"Z. c #FAEFEF",
"A. c #F7F0F0",
"S. c #F8F4F4",
"D. c #FCF7F7",
"F. c #FAF4F4",
"G. c white",
"H. c #FDFCFC",
/* pixels */
"                                                                                                                                ",
"                                                                                                                                ",
"                                                                                                                                ",
"                                                                                                                                ",
"                                                                                                                                ",
"                                                                                                                                ",
"                                                                                                                                ",
"                                                                                                                                ",
"                                                                                                                                ",
"                                                                                                                                ",
"                                                                                                                                ",
"                                                                                                                                ",
"                                                                                                                                ",
"                                                                                                                                ",
"                                                                                                                                ",
"                                                                                                                                ",
"                                                                                                                                ",
"                                                                                                                                ",
"                            .       .                                                   .                                       ",
"                            . . X . . X X . . .                                         . . . . . .                             ",
"                          . X o o O O O O o X .                                     . . . o o o o X                             ",
"                      . X o + @ # % % % # @ O o X                           .       . X O @ # # + O X .                         ",
"                      . o + % = C &.p.s.q.Q & + o . .                       . . . . X O # = @.c.5.@ o . .                       ",
"                    . X + % 4 7.f.I p u K 7.s.* + X .                   . . X X o X o @ = _ t.n p.h + X                         ",
"                    . O @ = <.<.4 = & = - 2 2.] @ o .                 . . o + + + + + % 2 l.B j #.~ + X .                       ",
"                    . O % 5 n.5 = # @ # % = u s.@ O .                 . o + > s.%.# % = V i.x k a.g + X                         ",
"                  . . O % q f.2 & @ + O @ % i r.@ o X               . . o @ ^ -.B.; & 2 ' :.c Y f.& + X .                       ",
"                    . + % 5 M.8 - % + O O @ > a + o X . . . . . X X . X O @ t s.=.& = 3 4...D z.N & + X .                       ",
"                  . X + & 3 >.9.8 = # O o O + O O o o o o o o O O O o O O @ % % & & 2 j u.X.n.F 6 & O X .                       ",
"                  . X + & 6 k 1.A.p.*.+ o X X X X o O @ @ # # % # # # @ # # % % & = 6 k g.Z.T k 3 1 $ X .                       ",
"                  . o # - 8 O.N.6.I < O X X . X X + # = 4 2 2 2 P 5.[ : = = L * & / 8.o.z.y.T } r.x.f X .                       ",
"                . X + & 5 a.4.e - % @ o X     . o + t l.C.t.z ,.a.W <.$.2 5 D.= & 5 Y ,.D.u.8.| d # O X                         ",
"                . o @ - 6.@.- & # + o X .     . o @ +.P 7 :.e.j.8 2 0 ) 3 K l.= & - 6 F G.n 2 & # O X .                         ",
"                . O # i j.2 & # O X . . . . X X o @ & - 7 v F.( 2 = = 2 6 ` 9.- = - 6 ,.G.b = # O o X     .                     ",
"              . X O % ! $.- % + o X . . . X o O @ % & 2 6 j D.e = % & 2 7 ,. .2 - 2 7 z.M.N & @ O X .                           ",
"                . O # I 2.- & @ O o X o O + @ % & i Z 3 7 A D.3 & % = 3 l C.;.6 3 6 S j.1.R = # + o . .                         ",
"                . o @ 9 M.Z - % # @ + + # % = 2 K Z.R 7 j 1.F.3 = = - 6 ,.j.8.7 6 7 d.` E e.2 = # $ o .                         ",
"              .   o + % C M.2.J , % % % & q ! w.h.e.O.j ` z.d.{ 2 2 5 >.f.n C.n 7 &.t.7 7 f.<.0 s k.O X .                       ",
"                  . o + % : Q 7.k.Z.v.v.B.h.&.H 2 e t.Z.e.b b t.v.a.N.<.5 2 P M.C.5.4 = - 0 5.x.p.a O X .                       ",
"                    X o O @ # % % # # % % # % % % % & % & & & = , q * % # # % % % # @ @ @ @ # # @ + X .                         ",
"                    . . X o O O O O + O O O O O O O + + + + @ + @ @ + O O o O O O o o X o o O O o o X .                         ",
"                        . . . X X X X X X X X . . X . X . X X o o X X X X . . . . . . . . X . . . .                             ",
"                              .   . . .   .     .         .   . . . .   .                   .                                   ",
"                                                                                                                                ",
"                                                                                                                                ",
"                                                                                                                                ",
"                                                                                                                                ",
"                                                                                                                                ",
"                                                                                                                                ",
"                                                                                                                                ",
"                                                                                                                                ",
"                                                                                                                                ",
"                                                                                                                                ",
"                                                                                                                                ",
"                                                                                                                                ",
"                                                                                                                                ",
"                                                                                                                                ",
"                                                                                                                                ",
"                                                                                                                                ",
"                                                                                                                                ",
"                                                                                                                                ",
"                                                                                                                                ",
"                                                                                                                                ",
"                                                                                                                                "
};
