/* XPM */
static char *_a3e71896a804c0fc9d57562d164272fFUbdJVMPdB3mBwLQ[] = {
/* columns rows colors chars-per-pixel */
"64 64 79 1 ",
"  c None",
". c #9D1221",
"X c #A31324",
"o c #AB1526",
"O c #AD1629",
"+ c #AC1A2D",
"@ c #B1172A",
"# c #B5192D",
"$ c #B81B2F",
"% c #AF1D31",
"& c #B51D32",
"* c #BB1D32",
"= c #B52035",
"- c #BA2036",
"; c #BE223A",
": c #C0243D",
"> c #C0263D",
", c #C0253E",
"< c #C1253E",
"1 c #C0263E",
"2 c #C1263E",
"3 c #C1263F",
"4 c #C0233C",
"5 c #C12B40",
"6 c #C12B41",
"7 c #C12B42",
"8 c #C12C42",
"9 c #C84357",
"0 c #C85261",
"q c #CC5164",
"w c #CB5B6A",
"e c #CF596B",
"r c #D16172",
"t c #D16372",
"y c #D16374",
"u c #D16474",
"i c #D26475",
"p c #D16F7C",
"a c #D46E7D",
"s c #D47984",
"d c #D77F8B",
"f c #D97D8B",
"g c #D97E8C",
"h c #D7808B",
"j c #D7808C",
"k c #D8808C",
"l c #DB8B95",
"z c #DC8F99",
"x c #DD959E",
"c c #E096A1",
"v c #E39EA9",
"b c #E3A0AA",
"n c #E5A5AF",
"m c #E4ABB3",
"M c #E5ACB3",
"N c #E7B3B9",
"B c #E9B9BF",
"V c #EAB9C0",
"C c #EABCC2",
"Z c #EDC6CB",
"A c #EEC6CB",
"S c #EEC6CC",
"D c #EEC7CC",
"F c #EEC7CD",
"G c #F5DFE2",
"H c #F5E0E3",
"J c #F5E1E3",
"K c #F6E1E3",
"L c #F6E1E4",
"P c #FAEEF0",
"I c #FBF3F4",
"U c #FCF6F7",
"Y c #FDF9F9",
"T c #FDF9FA",
"R c #FDFBFB",
"E c #FEFCFC",
"W c #FEFEFE",
"Q c #FFFEFE",
"! c white",
/* pixels */
"                          ===%=%====%=                          ",
"                      =========;-&-=======                      ",
"                    ==-=-=--;-;;,=;-;=;=====                    ",
"                 ====--;;;;;;;,*,,,-;,;;;;==;=%                 ",
"                ===--;;;1;11;1,,;,,,,;,;;;;;-===                ",
"              &===;;;;;411;111,,1,,111,,;;;;;;====              ",
"             ==-=;;;;;,,111117,5751111,,118;;;;;===             ",
"           %=&=;;;5;;8,2111117,,4511111111;;;-;;;;==%           ",
"          %=--;->4>>>>2222222222445422245444>444;---=&          ",
"         %=*-;;;44>42422222222,,454422454747>4>4;;-===%         ",
"        %=&=;;;;4>22>>4422>222>>44742444<<<<22>4;;;;---%        ",
"       %=;;;;;1;>44>4>2>4424444>4544,24,44444>>41;;;;-&-%       ",
"       =&&*;;;1144>>>44444,444>>445444,4422442441;;;;;&&=       ",
"      =&;;;;;1;;>44444>>4444>4444744444,44444444;5;,;;;&&=      ",
"     %&;;;;;;,5;>4444>44>4>44444444444,42442244444,,;;;-*&=     ",
"     &&&*;;44,,,4444444444444444444444444444444444,,;;;;-==     ",
"    &&--*4444444444444444;4;4;4;44444;4;4444;4;4;4;444-4$*$%    ",
"   +&&*;4444444444444444;4;4;4;44-44;4;444-4;;4;4;4;444---=&+   ",
"   &&*-;4*444444*44444444;;;4;4;444-4;4;-4444;;444;44*444-*$=   ",
"   &&*--4*444*449zbnbnbbnnnnnnnnnnnnve;;44-4;4tg4-4;444*---$$   ",
"  @&*--;44**444qUQQQYEEQQQQQQQQQEQQQQQg;**44;yRQb444*4444*=*$+  ",
"  &&*-*-*444**4BQQQQYRQQQQQQQQQQQQQQQQP;444*yRQQG-*4*4*4*4-*&#  ",
" +&&*-;;*44*444AQQQQQQQQQQQQQQQQQQQQQQQ8444tRQQQK4*444*44-*-$=+ ",
" +&***;*44*44**AQQQQQQQQQQQQQQQQQQQQQQQ6**tYQQQQK44**44**4-=&$+ ",
" &&**4*4**4**4*AQQQQQQQQQQQQQQQQQQQQQQQ8*iRQQQQQG4*44*4*4$4$$$$ ",
" @#***4**4*44*4AQQQQQQQQQQQQQQQQQQQQQQQ5tRQQQQQQG4***4*4*4***$# ",
"o#&*4**44***4**AQQQQQQQQQQQQQQQQQQQQQQQaRQQQQQQQK**44*******=##+",
"+##&*******4**4AQQQQQQQQQQQQQQQQQQQQQQQQQQQQQQQQK***4**44*4**&#o",
"o@&***4*4**4***AQQQQQQQQQQQQQQQQQQQQQQQQQQQQQQQQK4***4***4***$@+",
"o&$$********4**AQQQQQQQQQQQQQQQQQQQQQQQQQQQQQQQQK***********$$#+",
"+#&************AQQQQQQQQQQQQQQQQQQQQQQQQQQQQQQQQK*****4******$#o",
"O@$&******4****AQQQQQQQQQQQQQQQQQQQQQQQQQQQQQQQQK***********$##o",
"@@$$***********FQQQQQQQQQQQQQQQQQQQQQQQQQQQQQQQQL***********$$#@",
"o@$$***********FQQQQQQQQQQQQQQQQQQQQQQQQQQQQQQQQL***********$$@o",
"o@$$$**********FQQQQQQQQQQQQQQQQQQQQQQQQQQQQQQQQK***********$$@o",
"o@$$$**$****$**FQQQQQQQQQQQQQQQQQQQQQQQQQQQQQQQQK***$*******$$@o",
"X@#$$$*******$*CQQQQQQQQQQQQQQQQQQQQQQQQQQQQQQQQK&*$*$*$*$*&##@o",
"X@@$$$******$**FQQQQQQQQQQQQQQQQQQQQQQQlQQQQQQQQG**$**$*$*$$##@X",
" @@$$$$***$**$$FQQQQQQQQQQQQQQQQQQQQQQQ;kQQQQQQQK$**$*$***$$##@ ",
" o@$$$$$$$$**$$FQQQQQQQQQQQQQQQQQQQQQQQ;&jQQQQQQG*&$*$*$*$&##@o ",
" o@@$$$$$$$$$*$FQQQQQQQQQQQQQQQQQQQQQQQ;=*hQQQQQG$$&$$$*$$$#@@o ",
" .@#@$$$$$*$$$$FQQQQQQQQQQQQQQQQQQQQQQQ-*$#hQQQQG$$$$&$$$$$#@@X ",
"  +@##$$$$$$*$$CQQQQQQQQQQQQQQQQQQQQQQI*$&*#fQQQG*$$$$&$&$#@@O  ",
"  X+###$&$$$$$$wWQQQQQQQQQQQQQQQQQQQQQz#$$$$&dQQM$$$$*$#$$$@@X  ",
"   +O###$&$$$#$$0nBBVVVVBBBBBBBBVBBBNa$$$$$$$#sx;$$#$$#$###@o   ",
"   oO####$$#$$$$&$$&@&&##$$$$#$$&#$$$#$$##$&$&#$&$$$$$&$##@OX   ",
"   .O@@##$#$###&$$##$&#$$$$$#$$##&$&##&#&$##$##$$&###&####@OX   ",
"    XO@@#####$#$##$##$##$##$#########$$#$##$#$$#$##$#$##@@OX    ",
"     oO@@###$#$#$##$#$$#$#$###$$##$$#$#$#$#$$#$###$#####@Oo     ",
"     XO@@#################&#$###$###################@##@@OX     ",
"      XO@########################$######$##############@OX      ",
"       o+@@@############$############################@OOo       ",
"       .oO@@###########################$###########@@@Oo.       ",
"        .oO@@@#@#@####@###@###@####@###@#####@####@@@@o.        ",
"         .ooo@@#######@##@####@######@###@@#####@#@OOo.         ",
"          .o@@@@@#@#@#############@###@#######@@#OOOo.          ",
"           .ooo@@#@#@###@#O#@###@#@#@##@#@$##+@@@ooo.           ",
"             XoOO@@@@@@#######O@#@#######@@@@@@OooX             ",
"              .oooO+@@@@@@##@#####@@##O#@@@@O@ooo.              ",
"                XooOO@@@@@@O#@@#@@@#@@@O@@@OOooX                ",
"                 .XoooO+@@@@#@@O@@@@OOOOOooooX.                 ",
"                    XXooooOoOOo@o@OOOOOOooo.                    ",
"                      ..XooooooooOoooooX..                      ",
"                          .....XXX....                          "
};
