/* XPM */
static char *a0a90bda69ca4cc89fbc53254247b422QYO9hFNoAn3JPplq[] = {
/* columns rows colors chars-per-pixel */
"64 64 230 2 ",
"   c black",
".  c #010101",
"X  c #010202",
"o  c #020303",
"O  c #020404",
"+  c #030505",
"@  c #030606",
"#  c #040707",
"$  c #050808",
"%  c #050909",
"&  c #060A0A",
"*  c #060B0B",
"=  c #070C0C",
"-  c #070D0D",
";  c #080E0E",
":  c #080F0F",
">  c #091010",
",  c #0A1111",
"<  c #0A1212",
"1  c #0B1313",
"2  c #0B1414",
"3  c #0C1515",
"4  c #0C1616",
"5  c #0D1717",
"6  c #0E1818",
"7  c #0E1919",
"8  c #0F1A1A",
"9  c #0F1B1B",
"0  c #101C1C",
"q  c #101D1D",
"w  c #111E1E",
"e  c #121F1F",
"r  c #122020",
"t  c #132121",
"y  c #132222",
"u  c #142323",
"i  c #152525",
"p  c #152626",
"a  c #162727",
"s  c #172828",
"d  c #172929",
"f  c #182A2A",
"g  c #182B2B",
"h  c #192C2C",
"j  c #192D2D",
"k  c #1A2E2E",
"l  c #1B2F2F",
"z  c #1B3030",
"x  c #1C3131",
"c  c #1C3232",
"v  c #1D3333",
"b  c #1D3434",
"n  c #1E3535",
"m  c #1E3636",
"M  c #1F3737",
"N  c #203838",
"B  c #203939",
"V  c #213A3A",
"C  c #213B3B",
"Z  c #223C3C",
"A  c #223D3D",
"S  c #233E3E",
"D  c #243F3F",
"F  c #244040",
"G  c #254141",
"H  c #254242",
"J  c #264343",
"K  c #264444",
"L  c #274545",
"P  c #284646",
"I  c #284747",
"U  c #294848",
"Y  c #294949",
"T  c #2A4A4A",
"R  c #2A4B4B",
"E  c #2B4C4C",
"W  c #2B4D4D",
"Q  c #2C4E4E",
"!  c #2D4F4F",
"~  c #2D5050",
"^  c #2E5151",
"/  c #2E5252",
"(  c #2F5353",
")  c #2F5454",
"_  c #305555",
"`  c #315656",
"'  c #315757",
"]  c #325858",
"[  c #325959",
"{  c #335A5A",
"}  c #335B5B",
"|  c #345858",
" . c #355A5A",
".. c #345C5C",
"X. c #355D5D",
"o. c #355E5E",
"O. c #365F5F",
"+. c #385C5C",
"@. c #395D5D",
"#. c #366060",
"$. c #376161",
"%. c #376262",
"&. c #386363",
"*. c #3D6262",
"=. c #3E6363",
"-. c #386464",
";. c #396565",
":. c #3A6666",
">. c #3A6767",
",. c #3F6666",
"<. c #3B6868",
"1. c #3B6969",
"2. c #3C6A6A",
"3. c #3C6B6B",
"4. c #3D6C6C",
"5. c #3E6D6D",
"6. c #3E6E6E",
"7. c #416B6B",
"8. c #426B6B",
"9. c #406D6D",
"0. c #446E6E",
"q. c #456F6F",
"w. c #427171",
"e. c #417373",
"r. c #437272",
"t. c #437373",
"y. c #447070",
"u. c #457272",
"i. c #467373",
"p. c #427575",
"a. c #477676",
"s. c #4D7272",
"d. c #487474",
"f. c #497575",
"g. c #4A7878",
"h. c #4A7A7A",
"j. c #4C7C7C",
"k. c #4C7D7D",
"l. c #517979",
"z. c #537D7D",
"x. c #537E7E",
"c. c #547F7F",
"v. c #558181",
"b. c #598888",
"n. c #658484",
"m. c #688D8D",
"M. c #6A8D8D",
"N. c #698F8F",
"B. c #6B8E8E",
"V. c #6A9090",
"C. c #6A9191",
"Z. c #6E9393",
"A. c #799797",
"S. c #709C9C",
"D. c #7C9D9D",
"F. c #7E9E9E",
"G. c #7EA0A0",
"H. c #7FA0A0",
"J. c #7FA3A3",
"K. c #80A1A1",
"L. c #81A3A3",
"P. c #86A1A1",
"I. c #80A5A5",
"U. c #82A6A6",
"Y. c #88A3A3",
"T. c #88A4A4",
"R. c #88A5A5",
"E. c #8AA7A7",
"W. c #8AA8A8",
"Q. c #8BA8A8",
"!. c #8CA9A9",
"~. c #8EACAC",
"^. c #8EADAD",
"/. c #8FAFAF",
"(. c #91B3B3",
"). c #9EB5B5",
"_. c #9FB7B7",
"`. c #A0B6B6",
"'. c #A0B7B7",
"]. c #A1B8B8",
"[. c #A2BABA",
"{. c #A3BBBB",
"}. c #A9BDBD",
"|. c #A9BEBE",
" X c #ACBFBF",
".X c #A6C0C0",
"XX c #ACC0C0",
"oX c #ADC1C1",
"OX c #ADC3C3",
"+X c #AEC3C3",
"@X c #AFC4C4",
"#X c #AFC5C5",
"$X c #B1C8C8",
"%X c #C4D2D2",
"&X c #C4D3D3",
"*X c #C5D4D4",
"=X c #C7D4D4",
"-X c #C6D5D5",
";X c #C6D6D6",
":X c #C7D6D6",
">X c #C9D7D7",
",X c #C9D9D9",
"<X c #CAD9D9",
"1X c #CBD9D9",
"2X c #CDD9D9",
"3X c #CCDADA",
"4X c #CCDBDB",
"5X c #CEDBDB",
"6X c #CFDCDC",
"7X c #CEDDDD",
"8X c #D0DEDE",
"9X c #D3DFDF",
"0X c #D4DFDF",
"qX c #D4E0E0",
"wX c #D6E3E3",
"eX c #D9E2E2",
"rX c #D9E3E3",
"tX c #DAE4E4",
"yX c #E5EBEB",
"uX c #E5ECEC",
"iX c #E6ECEC",
"pX c #E6EDED",
"aX c #E7EEEE",
"sX c #EDF2F2",
"dX c #EEF3F3",
"fX c #F1F5F5",
"gX c #F4F7F7",
"hX c #F4F8F8",
"jX c #FAFCFC",
"kX c #FBFCFC",
/* pixels */
"                                                                                                                                ",
"                                                                                                                                ",
"                                                                                                                                ",
"                                                                                                                                ",
"                                                                                                                                ",
"                                                                                                                                ",
"                                                                                                                                ",
"                                                                                                                                ",
"                                                                o   o                                                           ",
"                                                    o # # # & # # # # # #       o                                               ",
"                                            #   # & * ; > 3 3 3 3 3 < < ; ; & # #                                               ",
"                                        #   # ; > 0 w i g g j j j j j g i u 3 > * # # o                                         ",
"                                  o     # ; 2 w i l C J R R T T E E E E R A c g w 3 = #                                         ",
"                                    & ; 3 y g C P _  .8.m.T.'.}.}.[.T.Z.y.&.[ T C j w > & #                                     ",
"                                # # > w g A E  .y.T.5XkXyX*XXX[.[.XX>XaXkX8X/.h.@.W M u 2 & +                                   ",
"                              + * < u N T o.f.{.hX0X!.l.o.' ^ E ^ ' &.5.b.(.qXhX.Xf.' A i 3 & +                                 ",
"                            # # 3 i A ' 2.L.sX1Xm.%.^ P A M c z c M A W [ :.p.S.7XsXF.' D i 3 & +                               ",
"                          # # < i A ' w.$XfXL.%.^ A c g y 6 3 6 6 6 u d M J ^ %.w.U.fXXX .A i 3 & +                             ",
"                          & > u C ' y.>XtXz.[ J M y 6 > = & & & & & = 2 6 y c J ' %.v.tX>X@.A i > & +                           ",
"                        # ; w N _ 9.>X8X8.^ C i 6 > & & +           + + & ; 3 i c P o.y.5X&X' A u > &                           ",
"                        & 3 c E :.$XqX,.P M w > & #                       # & ; 0 g D [ i.tXXX^ M w ;                           ",
"                      & > u J o.H.fXs.L j 6 = & #                         +   # & 3 d D [ z.fXA.R g 3 # +                       ",
"                      ; w M ' h.sXF.^ M 9 = +                                     & 3 g L o.H.sX*.C w ; +                       ",
"                    & > i P 1..X5X%.A y > + +                                     + = 6 z ^ 2.1X'.R j 3 &                       ",
"                    & 6 c ) j.gXm.^ z 3 &                                           # ; u A o.C.gX*.N w * o                     ",
"                  + = w C o.^.qXo.A u ; +                                             & 6 j E 2.0XY.J i > # o                   ",
"                  + > i J :.5X!.^ z 3 & +                                             # > i J o.^.5XR g 3 #                     ",
"                  # > d R y.kXs.J y > +                                               + & 6 M ) c.jX+.M 6 &                     ",
"                  & 3 g R B.yX' M 6 &                                                   # 3 j W 2.aXn.C w ;                     ",
"                  # 3 j E T.&X^ c 6 & +                                                 + > i L :.*XP.L i > #                   ",
"                  # 3 j E ).XXE j 3 &                                                   + = y A o.XX).R g > #                   ",
"                  & 3 j E }.'.E j 3 +                                                   + & w C  .[.}.R g 3 #                   ",
"                  # 3 j W }.'.W j 3 # o                                                 + & w M [ [.}.W g 2 +                   ",
"                  & 3 j R ). X^ l 3 #                                                   + = y A o.#X).R g > +                   ",
"                  & 3 j E T.&XE c 6 &                                                   + > i L 1.*XP.J i ; #                   ",
"                  # < j R B.yX' N 0 * o                                                 & 2 j W 2.yXn.C y & +                   ",
"                  # > g R q.jXs.D i ; # o                                             + & 6 M ' v.kX@.c 6 & +                   ",
"                  # ; i J :.5XQ.E c 3 &                                               # > i A o.!.5XR g 2 &                     ",
"                  # ; w C o.^.qXo.J u ; #                                             & 6 j W 5.qXT.L i ; +                     ",
"                    & 3 c ' j.gXm.^ c 6 * o o                                       + > y A ..C.hX*.N w =                       ",
"                    & > i R 2..X7X:.L d > &                                       + & 6 z ^ 1.1X'.R j 3 & +                     ",
"                      ; 0 M [ j.sXL.[ C y > &   o                             + + & 2 j J %.H.sX*.A w ; +                       ",
"                      # ; i J &.U.fXz.^ M 9 > +                               + = 3 d J  .z.fXA.R g 3 &                         ",
"                      # & 6 c E 5.$XtXq.R M y 2 & o #                 +   + & ; 6 g A ' y.tX X^ c w = +                         ",
"                        + ; w C ' p.1X7X9.^ C i 0 ; & # o         +   & & ; 3 i M L [ i.7X&X .C u > &                           ",
"                          # > i A [ i.1XtXc. .L c u 6 > ; * * & & & ; > 6 u c A ^ &.v.tX>X@.A i > & +                           ",
"                          + & > i D [ w.$XfXL.%.E J c g e 0 3 6 3 0 y g M J ^ :.p.U.fXXX .C i 3 & #                             ",
"                            + & 3 i A ' 2.L.sX>Xm.o._ P C N c c c M D R [ :.p.S.7XsXF.[ D i 3 &                                 ",
"                              + = 2 i M R o.d.[.gXqX!.l.o.' E E ^ ' %.5.b.(.qXhX|.f.' A i 3 & #                                 ",
"                                  & > w j C R  .q.T.7XkXyX&XXX[.[.#X*XaXjX8X(.f.%.R N u 3 ;   o                                 ",
"                                  + & ; 3 y g C P E  .9.m.T.'.}.}.).Q.Z.y.&.' R M j w ; &                                       ",
"                                      + # ; 3 w g c C J R R T E W W E W P A M g w 3 ; # #                                       ",
"                                          + & = < 6 w i g g j j j j j g i y 3 > = & +                                           ",
"                                              + # & ; ; > > 3 3 3 3 2 > > & & + +                                               ",
"                                                    # # # # & # + & # + # + +                                                   ",
"                                                                  +                                                             ",
"                                                                                                                                ",
"                                                                                                                                ",
"                                                                                                                                ",
"                                                                                                                                ",
"                                                                                                                                ",
"                                                                                                                                ",
"                                                                                                                                ",
"                                                                                                                                "
};
