/* XPM */
static char *_b122b7fb1f74a5bb75a6ed73e436f6aMCS3cEyiPB8Aoluc[] = {
/* columns rows colors chars-per-pixel */
"64 64 2 1 ",
"  c black",
". c white",
/* pixels */
" ..........................           ......................... ",
". .....................    ...........    .................... .",
".. .................   ...................   ................ ..",
"... ..............  .........................  ............. ...",
".... ...........  .............................  .......... ....",
"..... ......... ................................. ........ .....",
"...... ......  ...................................  ..... ......",
"....... .... ....................................... ... .......",
"........ .. ......................................... . ........",
".........  ........................................... .........",
".........  .................         ................ . ........",
"........ .. .............   .........   ............ ... .......",
"....... .... .........   ...............   ........ ..... ......",
"...... ...... ....... ..................... ...... ....... .....",
"...... ....... ....  .......................  ... ........ .....",
"..... ......... .. ........................... . .......... ....",
".... ...........  ............................. ............ ...",
".... ...........  ...........       .......... . ........... ...",
"... ........... .. .......   .......   ...... ... ........... ..",
"... .......... .... ....  .............  ... ..... .......... ..",
".. ........... ..... .. ................. . ...... ........... .",
".. .......... .......  ................... ........ .......... .",
".. ......... ........  ......       ..... . ........ ......... .",
". .......... ....... .. ...  .......  .. ... ....... .......... ",
". .......... ...... .... . ...........  ..... ...... .......... ",
". ......... ....... ..... ............  ..... ....... ......... ",
". ......... ...... ..... . .......... .. ..... ...... ......... ",
" .......... ...... .... ... ........ .... .... ...... ..........",
" ......... ....... .... .... ...... ..... .... ....... .........",
" ......... ...... .... ...... .... ....... .... ...... .........",
" ......... ...... .... ....... .. ........ .... ...... .........",
" ......... ...... .... ........  ......... .... ...... .........",
" ......... ...... .... ........  ......... .... ...... .........",
" ......... ...... .... ....... .. ........ .... ...... .........",
" ......... ...... .... ...... .... ....... .... ...... .........",
" ......... ...... .... ..... ...... ...... .... ...... .........",
" ......... ....... .... ... ........ .... .... ....... .........",
" .......... ...... .... .. .......... ... .... ...... ..........",
". ......... ...... .....  ............ . ..... ...... ......... ",
". ......... ....... ....  ............. ..... ....... ......... ",
". .......... ...... ... .. ........... . .... ...... .......... ",
". .......... ....... . ....  .......  ... .. ....... .......... ",
".. ......... ........ .......       ......  ........ ......... .",
".. .......... ...... . ...................  ....... .......... .",
".. ........... .... ... ................. .. ..... ........... .",
"... .......... ... .....  .............  .... .... .......... ..",
"... ........... . ........   .......   ....... .. ........... ..",
".... ........... ............       ...........  ........... ...",
".... .......... . .............................  ........... ...",
"..... ........ ... ........................... .. ......... ....",
"...... ...... .....  .......................  .... ....... .....",
"...... ..... ........ ..................... ....... ...... .....",
"....... ... ..........   ...............   ......... .... ......",
"........ . ..............   .........   ............. .. .......",
"......... ..................         .................  ........",
"........ . ...........................................  ........",
"....... ... ......................................... .. .......",
"...... ..... ....................................... .... ......",
"..... .......  ...................................  ...... .....",
".... .......... ................................. ......... ....",
"... ............  .............................  ........... ...",
".. ...............  .........................  .............. ..",
". ..................   ...................   ................. .",
" ......................    ...........    ..................... "
};
