/* XPM */
static char *_e5d7fe549694b6e9f2769c25a13e54fA5kgDHOroZK76LZY[] = {
/* columns rows colors chars-per-pixel */
"64 64 126 2 ",
"   c black",
".  c #010001",
"X  c #020002",
"o  c #030003",
"O  c #030004",
"+  c #040005",
"@  c #050006",
"#  c #060007",
"$  c #070008",
"%  c #080009",
"&  c #09000A",
"*  c #09000B",
"=  c #0A000C",
"-  c #0B000D",
";  c #0C000E",
":  c #0D000F",
">  c #0E0010",
",  c #0F0011",
"<  c #0F0012",
"1  c #100013",
"2  c #110014",
"3  c #120015",
"4  c #130016",
"5  c #150018",
"6  c #150019",
"7  c #18001B",
"8  c #19001C",
"9  c #1B001E",
"0  c #1C0020",
"q  c #1D0021",
"w  c #1F0023",
"e  c #200024",
"r  c #220027",
"t  c #230028",
"y  c #240029",
"u  c #25002A",
"i  c #26002B",
"p  c #27002C",
"a  c #28002D",
"s  c #2A0030",
"d  c #2B0031",
"f  c #2D0033",
"g  c #2E0034",
"h  c #2E0035",
"j  c #2F0036",
"k  c #320039",
"l  c #33003A",
"z  c #34003B",
"x  c #36003E",
"c  c #380040",
"v  c #390041",
"b  c #3A0043",
"n  c #3B0044",
"m  c #3D0046",
"M  c #3E0047",
"N  c #400049",
"B  c #400349",
"V  c #40004A",
"C  c #41004B",
"Z  c #42004B",
"A  c #43004C",
"S  c #44004D",
"D  c #45004E",
"F  c #46004F",
"G  c #460050",
"H  c #480052",
"J  c #4B0055",
"K  c #4C0057",
"L  c #4D0058",
"P  c #4E0359",
"I  c #52015D",
"U  c #52005E",
"Y  c #550E5E",
"T  c #540060",
"R  c #540160",
"E  c #560062",
"W  c #580065",
"Q  c #580364",
"!  c #570E61",
"~  c #5B0068",
"^  c #5B0368",
"/  c #5C0069",
"(  c #5E006B",
")  c #5E006C",
"_  c #600E6C",
"`  c #620E6E",
"'  c #620070",
"]  c #650173",
"[  c #650174",
"{  c #622E6B",
"}  c #6C2476",
"|  c #71247C",
" . c #742E7E",
".. c #77487E",
"X. c #782E82",
"o. c #792E84",
"O. c #7A3784",
"+. c #7D5083",
"@. c #80378A",
"#. c #863792",
"$. c #873793",
"%. c #894892",
"&. c #8A4893",
"*. c #8E5097",
"=. c #8F5098",
"-. c #AF85B4",
";. c #B185B7",
":. c #B385BA",
">. c #B485BB",
",. c #B78CBD",
"<. c #BC8CC3",
"1. c #D3B9D7",
"2. c #D4B9D8",
"3. c #D6B9DA",
"4. c #D6C0DA",
"5. c #D7C0DA",
"6. c #D8C0DB",
"7. c #DCC9DF",
"8. c #DDC9E0",
"9. c #DEC9E1",
"0. c #E8D9EA",
"q. c #F2EAF3",
"w. c #F2EAF4",
"e. c #F3EBF4",
"r. c #F3ECF4",
"t. c #F3ECF5",
/* pixels */
"                                    O                             O           O           O           O                         ",
"                    + + + $ % % $ $ $ $ $ $ $ $ $ $ $ % $ $ $ $ $ $ $ $ $ $ $ $ $ $ $ $ $ $ $ $ $ $ $ + + + + O                 ",
"                + % * - 1 1 2 2 2 2 2 2 2 2 2 2 2 2 2 2 2 4 2 2 2 2 2 2 2 2 2 2 2 4 4 2 2 2 2 2 2 2 2 2 > > * + +               ",
"          O + $ > 2 8 e e i a a p p a p p p a a a p a a p p p p p p p p a p p p p p p p p p p p a p p p t w 8 1 * $ +           ",
"        + + * 2 9 i h b N N C C N C C N C N C C C C N C C C C C C M C C C C C C N C C M C N C C C C N N M b h i 7 1 % o         ",
"        + - 5 t k N P  .&.=.=.=.*.=.=.=.=.*.=.=.=.=.*.=.=.=.=.=.=.*.=.=.=.=.*.=.*.=.=.=.=.*.=.=.=.=.*.&.O.W J M f 0 1 % +       ",
"      + % 5 i n ! ;.e.q.9.6.4.4.4.4.4.4.4.4.4.4.4.4.4.4.4.4.4.4.4.4.4.4.4.4.4.4.4.4.4.4.4.4.4.4.4.4.6.9.q.e.>._ F k e 1 % + o   ",
"      % 2 t b } 0.3.#.( U K F N C C C C C C C N C C C C M C C C C C C C C C C N C C C C C C C C N C F J U O.3.0.| H z 0 - + o   ",
"    + % 5 h Y 0.<.] T G b h a a a a a a a i a i a a a i a a p a p a p p p p p a p a a p a a p a a a f j x F U ,.0._ F d 5 % O   ",
"    + > e b -.3.[ T N h e 7 5 5 2 2 2 2 2 2 2 5 2 2 2 5 2 2 2 2 2 2 4 2 2 2 2 2 2 2 2 2 2 2 2 2 2 2 5 8 e h M U 3.>.U x 0 > +   ",
"    + 1 i M r.#.W N d 8 1 % % + % $ $ % % % + % + % $ + $ + % $ $ $ $ $ $ $ $ $ $ $ $ $ $ $ $ $ + % % % 1 7 d N O.r.W M t 1 +   ",
"    + 1 i { q.' P z 0 > + + o                       +         O         O         O                   + + > 0 k K q.O.N i 2 $   ",
"  o % 2 p ..7.( F d 5 %                                                                                   % 5 f G 9.&.C i 2 $   ",
"    % 2 p +.4.( C p 5 %                                                                                   % 5 a C 4.=.C p 2 $   ",
"    + 5 p +.4.W C a 5 + o                                                                                 % 2 a C 4.=.N a 2 $   ",
"    + 2 a +.4.( N a 2 %                                                                                   $ 2 a C 4.=.C a 2 $   ",
"  o + 5 i +.4.W C a 2 $                                                                                   % 5 p N 4.=.N a 2 $   ",
"    $ 2 a +.4.( N a 2 $                                                                                   + 2 p C 4.=.C p 2 %   ",
"  o % 2 i +.4.W C a 2 $                                                                                   % 2 p C 4.=.C a 2 $   ",
"    + 5 a +.4.( C a 2 +                                                                                   % 2 a C 4.*.N a 2 $   ",
"    + 5 i +.4.W C a 2 $ +                                                                                 % 2 a N 4.=.C a 2 $   ",
"    $ 2 a +.4.( N a 2 $                                                                                   % 2 p C 4.=.C p 2 %   ",
"    % 2 i +.4.W C a 2 %                                                                                   + 5 p C 4.=.N a 2 $   ",
"    + 2 a +.4.( C a 2 %                                                                                   % 2 a C 4.=.C a 2 $   ",
"    % 2 p +.4.^ N p 2 $                                                                                   $ 2 p C 4.=.M p 4 $   ",
"  o + 5 p +.4.^ C a 2 $                                                                                   $ 4 p C 4.=.C p 2 $   ",
"    $ 2 i +.4.( C p 2 $                                                                                   $ 4 p C 4.=.C p 4 $   ",
"    % 2 i +.4.W C p 2 $ O                                                                                 $ 2 p C 4.=.N p 2 $   ",
"    $ 2 a +.4.( C p 2 $                                                                                   $ 2 p M 4.=.C p 4 $   ",
"    + 5 a +.6.W C p 2 $                                                                                   $ 4 p C 4.=.C p 2 $   ",
"    % 2 i +.4.( C p 2 $                                                                                   $ 2 p C 4.=.C p 4 $   ",
"  o $ 2 a +.4.W C p 2 $                                                                                   $ 4 p C 4.=.C p 2 $   ",
"    $ 2 p +.3.^ N i 5 + +                                                                                 $ 2 p C 4.=.M p 4 $   ",
"    $ 2 p +.4.^ C a 2 %                                                                                   $ 2 a C 4.=.C p 2 $   ",
"    $ 2 p +.4.^ C a 2 +                                                                                 O $ 2 p C 4.=.C p 4 $   ",
"    $ 2 p +.3.^ N a 5 %                                                                                   $ 2 p C 4.=.N p 2 $   ",
"    % 2 p +.4.^ C p 2 $                                                                                   $ 2 a M 4.=.C p 4 $   ",
"  O % 2 p +.4.^ C a 2 $                                                                                   $ 2 p C 4.=.C p 2 $   ",
"    $ 2 p +.3.^ C p 2 $                                                                                   $ 2 p C 4.=.C p 4 $   ",
"    $ 2 p +.4.^ C p 2 $ O                                                                               O $ 2 p C 4.=.C p 2 $   ",
"    + 5 i +.4.W C p 2 $                                                                                   $ 2 p C 4.=.C p 4 $   ",
"    $ 2 a +.4.( C a 2 $                                                                                   $ 4 p C 4.=.C p 2 $   ",
"    % 2 i +.4.W C a 2 +                                                                                   $ 4 p C 4.=.C p 4 $   ",
"  + + 5 a +.4.( C a 2 $                                                                                   $ 2 p C 4.=.M p 2 $   ",
"    + 5 i +.4.W C a 2 $                                                                                   $ 2 p C 4.=.C p 4 $   ",
"    $ 2 a +.4.( N p 2 $                                                                                   $ 4 p C 4.=.C p 2 $   ",
"    % 2 i +.4.W C a 2 $                                                                                   $ 2 p C 4.=.M p 4 $   ",
"    + 2 a +.4.( C a 2 $ O                                                                                 $ 4 p C 4.=.C p 2 $   ",
"    % 2 p +.4.~ N a 2 $                                                                                   $ 2 a C 4.=.N p 2 $   ",
"  o + 5 p +.4.~ N a 2 $                                                                                   $ 2 a C 4.=.C p 2 %   ",
"    $ 2 p +.4.( F p 2 %                                                                                   % 2 p F 4.=.C a 2 $   ",
"    % 2 i ..7.( F d 5 % +                                                                               O % 5 f F 7.&.N a 2 $   ",
"    + 2 a { q.' K x 0 > + +         O       O                                               O     O   + + > 0 z K w.O.M p 2 +   ",
"    + 1 i B r.#.W N d 7 1 * % % $ $ $ $ $ $ $ $ $ $ $ $ $ % $ $ $ $ $ % $ $ % $ $ $ $ $ $ $ $ $ $ $ $ * 1 8 a N O.w.^ M t > $   ",
"  o + > 0 b -.3.] T N h e 7 5 2 2 2 2 2 2 2 2 2 2 2 2 2 2 2 2 2 2 2 2 2 2 2 2 2 2 2 2 2 2 2 2 2 2 2 5 8 e f M U 1.>.U x 0 > +   ",
"    + % 7 h Y 0.<.] T F b j d a p a a p p p p p a p a a a p a a a p a a p a a a a p a a p p p p p p d j b F U ,.0._ F d 5 % +   ",
"      $ 2 e n } 0.3.#.( U J F N N C C C C C C C C C C M C C C C C C C C C C C C N C C C C C C C N N F J U @.1.0.| J k 0 > +     ",
"      O * 5 i n ! ;.r.q.9.6.4.6.4.4.4.4.4.4.4.4.4.4.4.4.4.4.4.4.4.4.4.4.4.4.4.4.4.4.4.4.4.4.4.4.6.4.4.9.q.r.:._ G k 0 2 % +     ",
"      O + * 5 i k N P  .&.=.=.*.=.*.=.=.=.=.*.=.=.=.=.=.=.*.=.=.=.=.*.=.=.=.=.*.=.=.*.=.=.=.*.=.=.*.=.&.X.Q K M h 0 2 % +       ",
"        O + * 2 9 i j b M N C N C C C C C C M C C C C C C N C C C C N C M C C N C C N C C C N C C N N N M b h i 5 1 $ O         ",
"          + + % > 2 8 w i i p p p p p a p p p p p p p p p p p a p p p p p p p p a a a a a a a a a a a i t e 7 2 * % + +         ",
"                O $ % > > 2 2 2 2 2 2 2 2 2 2 2 2 2 4 2 2 2 2 2 2 2 2 2 2 4 4 2 2 2 2 2 2 2 2 2 2 2 2 2 1 1 % + +               ",
"                    + + + $ $ $ $ $ $ $ $ $ $ $ $ $ $ $ $ $ $ $ $ $ $ $ $ $ $ $ % $ % % $ + % $ $ % $ + + + o o                 ",
"                                O           O           O           O                                                           "
};
