/* XPM */
static char *_29a2eb679c946b1d6bd76ac590c55f9EcmXDVD5qcuiW6Fp[] = {
/* columns rows colors chars-per-pixel */
"64 64 3 1 ",
"  c #E0627C",
". c #E6E6E6",
"X c gray91",
/* pixels */
"XXXXXXXXXXXXXXXXXXXXXXXXXXXXXXXXXXXXXXXXXXXXXXXXXXXXXXXXXXXXXXXX",
"XXXXXXXXXXXXXXXXXXXXXXXXXXXXXXXXXXXXXXXXXXXXXXXXXXXXXXXXXXXXXXXX",
"XXXXXXXXXXXXXXXXXXXXXXXXXXXXXXXXXXXXXXXXXXXXXXXXXXXXXXXXXXXXXXXX",
"XXXXXXXXXXXXXXXXXXXXXXXXXXXXXXXXXXXXXXXXXXXXXXXXXXXXXXXXXXXXXXXX",
"XXXXXXXXXXXXXXXXXXXXXXXXXXXXXXXXXXXXXXXXXXXXXXXXXXXXXXXXXXXXXXXX",
"XXXXXXXXXXXXXXXXXXXXXXXXXXXXXXXXXXXXXXXXXXXXXXXXXXXXXXXXXXXXXXXX",
"XXXXXXXXXXXXXXXXXXXXXXXXXXX.XXXXXXXXXXXXXXXXXXXXXXXXXXXXXXXXXXXX",
"XXXXXXXXXXXXXXXXXXXXXXXX.X...      XXXXXXXXXXXXXXXXXXXXXXXXXXXXX",
"XXXXXXXXXXXXXXXXXXXXXXX. . X            XXXXXXXXXXXXXXXXXXXXXXXX",
"XXXXXXXXXXXXXXXXXXXXX                     XXXXXXXXXXXXXXXXXXXXXX",
"XXXXXXXXXXXXXXXXXX                         XXXXXXXXXXXXXXXXXXXXX",
"XXXXXXXXXXXXXXXX                            XXXXXXXXXXXXXXXXXXXX",
"XXXXXXXXXXXXXXX                              XXXXXXXXXXXXXXXXXXX",
"XXXXXXXXXXXXXXX                               XXXXXXXXXXXXXXXXXX",
"XXXXXXXXXXXXXX             .....               XXXXXXXXXXXXXXXXX",
"XXXXXXXXXXXX             ........XXXX         X XXXXXXXXXXXXXXXX",
"XXXXXXXXXXXX          ............XXXXXX        XXXXXXXXXXXXXXXX",
"XXXXXXXXXXXX        ..............XXXXXXX        XXXXXXXXXXXXXXX",
"XXXXXXXXXX         X.............XXXXXXXXX       XXXXXXXXXXXXXXX",
"XXXXXXXXXX        XX..............XXXXXXXX       XXXXXXXXXXXXXXX",
"XXXXXXXXX         XXX.............X.XXXXXXX       XXXXXXXXXXXXXX",
"XXXXXXXXX        XXXX..............XXXXXXXX        XXXXXXXXXXXXX",
"XXXXXXXXX       XXXXX..............XXXXXXXX       XXXXXXXXXXXXXX",
"XXXXXXXX       XXXXXX.............XXXXXXXXXX       XXXXXXXXXXXXX",
"XXXXXXXX       XXXXXX.............XXXXXXXXXX       XXXXXXXXXXXXX",
"XXXXXXX       XXXXXXX.............XXXXXXXXXXX     XXXXXXXXXXXXXX",
"XXXXXXX       XXXXXX..............XXXXXXXXXXX      XXXXXXXXXXXXX",
"XXXXXXX      XXXXXXX..............XXXXXXXXXXXX      XXXXXXXXXXXX",
"XXXXXXX      XXXXXXX.............XX   XXXXXXX       XXXXXXXXXXXX",
"XXXXXXX       XXXXXX.X    ........     XXXXXXX       XXXXXXXXXXX",
"XXXXXX       XXXXXXXX     ......X       XXXXXX       XXXXXXXXXXX",
"XXXXXX       XXXXXXX       .....X       XXXXXX       XXXXXXXXXXX",
"XXXXXXX      XXXXXXX       ...X.X       XXXXXX       XXXXXXXXXXX",
"XXXXXX       XXXXXXX       .X.XXXX     XXXXXXX      XXXXXXXXXXXX",
"XXXXXXX      XXXXXXX      ..XXXXXXX    XXXXXXX       XXXXXXXXXXX",
"XXXXXXX      XXXXXXXXX    XXXXXXXXXXXXXXXXXXXXX     XXXXXXXXXXXX",
"XXXXXX       XXXXXXXXXXXXXXXXXXXXXXXXXXXXXXXXX       XXXXXXXXXXX",
"XXXXXX       XXXXXXXXXXXXXXXXXXXXXXXXXXXXXXXXXX     XXXXXXXXXXXX",
"XXXXXXX     XXXXXXXXXXXXXXXXXXXXXXXXXXXXXXXXXXX      XXXXXXXXXXX",
"XXXXXXX      XXXXXXXXXXXXXXXX       XXXXXXXXXX X    XXXXXXXXXXXX",
"XXXXXX       XXXXXXXXXXXXX           XXXXXXXXXX      XXXXXXXXXXX",
"XXXXXXX     XXXXXXXXXXXXX             XXXXXXXX      XXXXXXXXXXXX",
"XXXXXX       XXXXXXXXXXX             XXXXXXXX       XXXXXXXXXXXX",
"XXXXXX      XXXXXXXXXXXX              XXXXXXXX     XXXXXXXXXXXXX",
"XXXXXX       XXXXXXXXXXX             XXXXXXXX       XXXXXXXXXXXX",
"XXXXXX       XXXXXXXXXXXXX         XXXXXXXXXX      XXXXXXXXXXXXX",
"XXXXXXX       XXXXXXXXXXX X  XXXXXXXXXXXXXXXX      XXXXXXXXXXXXX",
"XXXXXXX       XXXXXXXXXXXXXXXXXXXXXXXXXXXXXX       XXXXXXXXXXXXX",
"XXXXXXXX      XXXXXXXXXXXXXXXXXXXXXXXXXXXX        XXXXXXXXXXXXXX",
"XXXXXXXX       XXXXXXXXXXXXXXXXXXXXXXXXXX         XXXXXXXXXXXXXX",
"XXXXXXXX        XXXXXXXXXXXXXXXXXXXXX             XXXXXXXXXXXXXX",
"XXXXXXXX        XXXXXXXXXXXXXXXXXX X             XXXXXXXXXXXXXXX",
"XXXXXXXX           XXXXXX     X                  XXXXXXXXXXXXXXX",
"XXXXXXXXX                                      XXXXXXXXXXXXXXXXX",
"XXXXXXXXXX                                    XXXXXXXXXXXXXXXXXX",
"XXXXXXXXXXX                                XXXXXXXXXXXXXXXXXXXXX",
"XXXXXXXXXXXX                               XXXXXXXXXXXXXXXXXXXXX",
"XXXXXXXXXXXXXXX                      XXXXXXXXXXXXXXXXXXXXXXXXXXX",
"XXXXXXXXXXXXXXXX  X         XX    XXXXXXXXXXXXXXXXXXXXXXXXXXXXXX",
"XXXXXXXXXXXXXXXXXXXX  XXXXXXXXXXXXXXXXXXXXXXXXXXXXXXXXXXXXXXXXXX",
"XXXXXXXXXXXXXXXXXXXXXXXXXXXXXXXXXXXXXXXXXXXXXXXXXXXXXXXXXXXXXXXX",
"XXXXXXXXXXXXXXXXXXXXXXXXXXXXXXXXXXXXXXXXXXXXXXXXXXXXXXXXXXXXXXXX",
"XXXXXXXXXXXXXXXXXXXXXXXXXXXXXXXXXXXXXXXXXXXXXXXXXXXXXXXXXXXXXXXX",
"XXXXXXXXXXXXXXXXXXXXXXXXXXXXXXXXXXXXXXXXXXXXXXXXXXXXXXXXXXXXXXXX"
};
